<?xml version="1.0" standalone="no"?>
<!DOCTYPE svg PUBLIC "-//W3C//DTD SVG 20010904//EN"
 "http://www.w3.org/TR/2001/REC-SVG-20010904/DTD/svg10.dtd">
<svg version="1.0" xmlns="http://www.w3.org/2000/svg"
 width="512.000000pt" height="512.000000pt" viewBox="0 0 512.000000 512.000000"
 preserveAspectRatio="xMidYMid meet">
<metadata>
Created by potrace 1.11, written by Peter Selinger 2001-2013
</metadata>
<g transform="translate(0.000000,512.000000) scale(0.100000,-0.100000)"
fill="#000000" stroke="none">
<path d="M1540 4685 c-347 -61 -612 -271 -709 -561 -33 -98 -44 -169 -44 -271
1 -60 5 -80 27 -117 45 -77 114 -112 206 -103 116 10 185 90 195 221 8 129 50
220 135 293 83 72 224 119 366 122 247 5 447 -109 511 -293 17 -48 18 -117 18
-1036 l0 -985 28 -41 c73 -107 192 -132 301 -63 36 22 53 43 72 83 l24 53 3
959 c3 789 1 974 -11 1044 -56 337 -301 587 -667 680 -110 28 -338 35 -455 15z"/>
<path d="M3509 4264 c-87 -15 -204 -55 -269 -92 -126 -71 -240 -196 -294 -320
-26 -59 -31 -74 -42 -132 -3 -14 -7 -32 -10 -41 -11 -39 -5 -156 11 -197 43
-105 177 -160 280 -113 84 38 132 118 134 224 3 173 213 290 434 240 99 -22
170 -72 210 -147 20 -38 22 -58 25 -247 l4 -205 -164 1 c-89 0 -184 -3 -211
-7 -81 -12 -157 -84 -174 -166 -21 -101 42 -212 139 -244 54 -18 656 -18 700
0 47 20 106 81 122 127 21 63 21 662 -1 768 -19 97 -89 239 -153 310 -172 191
-466 287 -741 241z"/>
<path d="M1266 3223 c-26 -8 -60 -29 -82 -51 -105 -105 -85 -264 44 -339 45
-27 49 -27 224 -28 101 -1 196 4 221 10 59 15 101 50 132 109 41 81 30 169
-31 236 -60 66 -84 72 -286 74 -119 1 -193 -3 -222 -11z"/>
<path d="M4170 2680 c-61 -11 -111 -44 -150 -100 -28 -39 -27 -23 -34 -505 -4
-249 -6 -277 -29 -365 -71 -269 -232 -476 -492 -633 -101 -60 -324 -150 -426
-171 -13 -3 -55 -12 -94 -20 -113 -25 -189 -31 -380 -31 -157 0 -318 9 -334
20 -4 2 -24 6 -46 9 -74 12 -228 56 -319 92 -345 137 -583 367 -679 656 -36
107 -45 158 -53 288 -11 172 -70 249 -203 263 -55 6 -108 -12 -155 -54 -63
-56 -79 -108 -71 -241 3 -57 7 -110 10 -118 2 -8 6 -36 10 -62 19 -153 116
-396 219 -547 147 -215 369 -401 630 -526 138 -66 370 -146 471 -161 22 -3 43
-8 46 -10 4 -2 31 -6 60 -10 30 -3 57 -8 61 -10 30 -18 476 -26 613 -11 478
51 913 248 1194 539 81 84 79 81 140 164 41 57 155 260 160 286 1 4 3 13 6 20
37 108 58 190 81 318 12 70 15 713 3 764 -17 71 -86 139 -154 152 -28 5 -66 7
-85 4z"/>
<path d="M1124 2633 c-17 -8 -43 -34 -57 -56 -86 -132 51 -293 195 -229 158
69 108 304 -63 301 -24 0 -58 -7 -75 -16z"/>
</g>
</svg>
